<svg width="434" height="94" viewBox="0 0 434 94" fill="none" xmlns="http://www.w3.org/2000/svg">
<path d="M21.1364 94H0.0454547L32.1818 0.909088H57.5455L89.6364 94H68.5455L45.2273 22.1818H44.5L21.1364 94ZM19.8182 57.4091H69.6364V72.7727H19.8182V57.4091ZM100.841 94V0.909088H120.523V77.7727H160.432V94H100.841ZM173.466 94V0.909088H235.102V17.1364H193.148V39.3182H231.011V55.5455H193.148V94H173.466Z" fill="white"/>
<path d="M252.761 94H231.67L263.807 0.909088H289.17L321.261 94H300.17L276.852 22.1818H276.125L252.761 94ZM251.443 57.4091H301.261V72.7727H251.443V57.4091ZM332.466 0.909088H356.739L382.375 63.4545H383.466L409.102 0.909088H433.375V94H414.284V33.4091H413.511L389.42 93.5455H376.42L352.33 33.1818H351.557V94H332.466V0.909088Z" fill="#FF8C00"/>
</svg>
